<mxfile host="65bd71144e">
    <diagram id="NlMqrlt0H7gpSdNyKNgv" name="Page-1">
        <mxGraphModel dx="418" dy="633" grid="1" gridSize="10" guides="1" tooltips="1" connect="1" arrows="1" fold="1" page="1" pageScale="1" pageWidth="850" pageHeight="1100" math="1" shadow="0">
            <root>
                <mxCell id="0"/>
                <mxCell id="1" parent="0"/>
                <mxCell id="H3HsotdIxhZwdMS4Lfef-60" value="" style="rounded=1;whiteSpace=wrap;html=1;labelBackgroundColor=none;fontSize=17;fillColor=#dae8fc;strokeColor=#6c8ebf;" parent="1" vertex="1">
                    <mxGeometry x="270" y="190" width="330" height="310" as="geometry"/>
                </mxCell>
                <mxCell id="3" value="" style="edgeStyle=orthogonalEdgeStyle;rounded=1;orthogonalLoop=1;jettySize=auto;html=1;exitX=1;exitY=0.5;exitDx=0;exitDy=0;endSize=2;startSize=2;entryX=0;entryY=0.5;entryDx=0;entryDy=0;" edge="1" parent="1" source="H3HsotdIxhZwdMS4Lfef-6" target="H3HsotdIxhZwdMS4Lfef-46">
                    <mxGeometry relative="1" as="geometry">
                        <Array as="points">
                            <mxPoint x="310" y="220"/>
                            <mxPoint x="310" y="350"/>
                        </Array>
                    </mxGeometry>
                </mxCell>
                <mxCell id="6" value="" style="edgeStyle=orthogonalEdgeStyle;rounded=1;orthogonalLoop=1;jettySize=auto;html=1;startSize=2;endSize=2;entryX=0;entryY=0.5;entryDx=0;entryDy=0;" edge="1" parent="1" source="H3HsotdIxhZwdMS4Lfef-6" target="H3HsotdIxhZwdMS4Lfef-21">
                    <mxGeometry relative="1" as="geometry"/>
                </mxCell>
                <mxCell id="H3HsotdIxhZwdMS4Lfef-6" value="$$h_{t-1}$$" style="text;html=1;strokeColor=none;fillColor=none;align=center;verticalAlign=middle;whiteSpace=wrap;rounded=0;labelBackgroundColor=none;fontSize=17;" parent="1" vertex="1">
                    <mxGeometry x="200" y="210" width="40" height="20" as="geometry"/>
                </mxCell>
                <mxCell id="H3HsotdIxhZwdMS4Lfef-12" value="&lt;span&gt;$$\tanh$$&lt;/span&gt;" style="rounded=1;whiteSpace=wrap;html=1;labelBackgroundColor=none;fontSize=17;fillColor=#fff2cc;strokeColor=#d6b656;" parent="1" vertex="1">
                    <mxGeometry x="515" y="340" width="50" height="20" as="geometry"/>
                </mxCell>
                <mxCell id="23" value="" style="edgeStyle=orthogonalEdgeStyle;rounded=1;orthogonalLoop=1;jettySize=auto;html=1;startSize=2;endSize=2;entryX=0.5;entryY=1;entryDx=0;entryDy=0;jumpStyle=arc;exitX=1;exitY=0.5;exitDx=0;exitDy=0;" edge="1" parent="1" source="32" target="H3HsotdIxhZwdMS4Lfef-12">
                    <mxGeometry relative="1" as="geometry">
                        <mxPoint x="484.9999405467911" y="390.0344827586208" as="sourcePoint"/>
                    </mxGeometry>
                </mxCell>
                <mxCell id="H3HsotdIxhZwdMS4Lfef-27" value="" style="edgeStyle=elbowEdgeStyle;rounded=0;orthogonalLoop=1;jettySize=auto;elbow=vertical;html=1;fontSize=17;startArrow=none;startFill=0;startSize=2;endSize=2;" parent="1" source="H3HsotdIxhZwdMS4Lfef-21" target="H3HsotdIxhZwdMS4Lfef-25" edge="1">
                    <mxGeometry relative="1" as="geometry"/>
                </mxCell>
                <mxCell id="H3HsotdIxhZwdMS4Lfef-21" value="$$\times$$" style="ellipse;whiteSpace=wrap;html=1;aspect=fixed;labelBackgroundColor=none;fontSize=17;fillColor=#f8cecc;strokeColor=#b85450;" parent="1" vertex="1">
                    <mxGeometry x="410" y="210" width="20" height="20" as="geometry"/>
                </mxCell>
                <mxCell id="H3HsotdIxhZwdMS4Lfef-25" value="$$+$$" style="ellipse;whiteSpace=wrap;html=1;aspect=fixed;labelBackgroundColor=none;fontSize=17;fillColor=#f8cecc;strokeColor=#b85450;" parent="1" vertex="1">
                    <mxGeometry x="530" y="210" width="20" height="20" as="geometry"/>
                </mxCell>
                <mxCell id="11" value="" style="edgeStyle=orthogonalEdgeStyle;rounded=1;orthogonalLoop=1;jettySize=auto;html=1;startSize=2;endSize=2;entryX=0.5;entryY=1;entryDx=0;entryDy=0;" edge="1" parent="1" source="H3HsotdIxhZwdMS4Lfef-31" target="H3HsotdIxhZwdMS4Lfef-25">
                    <mxGeometry relative="1" as="geometry"/>
                </mxCell>
                <mxCell id="H3HsotdIxhZwdMS4Lfef-31" value="$$\times$$" style="ellipse;whiteSpace=wrap;html=1;aspect=fixed;labelBackgroundColor=none;fontSize=17;fillColor=#f8cecc;strokeColor=#b85450;" parent="1" vertex="1">
                    <mxGeometry x="530" y="255" width="20" height="20" as="geometry"/>
                </mxCell>
                <mxCell id="H3HsotdIxhZwdMS4Lfef-36" value="$$h_t$$" style="text;html=1;strokeColor=none;fillColor=none;align=center;verticalAlign=middle;whiteSpace=wrap;rounded=0;labelBackgroundColor=none;fontSize=17;" parent="1" vertex="1">
                    <mxGeometry x="630" y="210" width="30" height="20" as="geometry"/>
                </mxCell>
                <mxCell id="H3HsotdIxhZwdMS4Lfef-40" value="" style="endArrow=classic;html=1;fontSize=17;startSize=2;endSize=2;exitX=1;exitY=0.5;exitDx=0;exitDy=0;shadow=0;sketch=0;targetPerimeterSpacing=0;jumpStyle=none;entryX=0;entryY=0.5;entryDx=0;entryDy=0;" parent="1" source="H3HsotdIxhZwdMS4Lfef-25" target="H3HsotdIxhZwdMS4Lfef-36" edge="1">
                    <mxGeometry width="50" height="50" relative="1" as="geometry">
                        <mxPoint x="600" y="340" as="sourcePoint"/>
                        <mxPoint x="640" y="220" as="targetPoint"/>
                    </mxGeometry>
                </mxCell>
                <mxCell id="H3HsotdIxhZwdMS4Lfef-43" value="&lt;span&gt;$$\sigma$$&lt;/span&gt;" style="rounded=1;whiteSpace=wrap;html=1;labelBackgroundColor=none;fontSize=17;fillColor=#fff2cc;strokeColor=#d6b656;" parent="1" vertex="1">
                    <mxGeometry x="300" y="420" width="20" height="20" as="geometry"/>
                </mxCell>
                <mxCell id="H3HsotdIxhZwdMS4Lfef-46" value="&lt;span&gt;$$\sigma$$&lt;/span&gt;" style="rounded=1;whiteSpace=wrap;html=1;labelBackgroundColor=none;fontSize=17;fillColor=#fff2cc;strokeColor=#d6b656;" parent="1" vertex="1">
                    <mxGeometry x="410" y="340" width="20" height="20" as="geometry"/>
                </mxCell>
                <mxCell id="4" value="" style="edgeStyle=orthogonalEdgeStyle;rounded=1;orthogonalLoop=1;jettySize=auto;html=1;endSize=2;startSize=2;exitX=0.5;exitY=0;exitDx=0;exitDy=0;jumpStyle=arc;jumpSize=12;" edge="1" parent="1" source="H3HsotdIxhZwdMS4Lfef-61" target="H3HsotdIxhZwdMS4Lfef-46">
                    <mxGeometry relative="1" as="geometry">
                        <Array as="points">
                            <mxPoint x="310" y="470"/>
                            <mxPoint x="420" y="470"/>
                        </Array>
                    </mxGeometry>
                </mxCell>
                <mxCell id="H3HsotdIxhZwdMS4Lfef-61" value="&lt;span&gt;$$x_t$$&lt;/span&gt;" style="rounded=1;whiteSpace=wrap;html=1;labelBackgroundColor=none;fontSize=17;fillColor=#d5e8d4;strokeColor=#82b366;" parent="1" vertex="1">
                    <mxGeometry x="290" y="520" width="40" height="40" as="geometry"/>
                </mxCell>
                <mxCell id="H3HsotdIxhZwdMS4Lfef-62" value="$$h_t$$" style="rounded=1;whiteSpace=wrap;html=1;labelBackgroundColor=none;fontSize=17;fillColor=#f8cecc;strokeColor=#b85450;" parent="1" vertex="1">
                    <mxGeometry x="540" y="120" width="40" height="40" as="geometry"/>
                </mxCell>
                <mxCell id="9" value="" style="edgeStyle=orthogonalEdgeStyle;rounded=1;orthogonalLoop=1;jettySize=auto;html=1;startSize=2;endSize=2;" edge="1" parent="1" source="7" target="H3HsotdIxhZwdMS4Lfef-31">
                    <mxGeometry relative="1" as="geometry"/>
                </mxCell>
                <mxCell id="7" value="$$1-$$" style="ellipse;whiteSpace=wrap;html=1;aspect=fixed;labelBackgroundColor=none;fontSize=17;fillColor=#f8cecc;strokeColor=#b85450;" vertex="1" parent="1">
                    <mxGeometry x="465" y="270" width="30" height="30" as="geometry"/>
                </mxCell>
                <mxCell id="16" value="" style="edgeStyle=orthogonalEdgeStyle;rounded=1;orthogonalLoop=1;jettySize=auto;html=1;startSize=2;endSize=2;" edge="1" parent="1" source="H3HsotdIxhZwdMS4Lfef-53" target="7">
                    <mxGeometry relative="1" as="geometry"/>
                </mxCell>
                <mxCell id="H3HsotdIxhZwdMS4Lfef-53" value="$$z_t$$" style="text;html=1;strokeColor=none;fillColor=none;align=center;verticalAlign=middle;whiteSpace=wrap;rounded=0;labelBackgroundColor=none;fontSize=17;" parent="1" vertex="1">
                    <mxGeometry x="407.5" y="270" width="25" height="30" as="geometry"/>
                </mxCell>
                <mxCell id="17" value="" style="endArrow=classic;html=1;startSize=2;endSize=2;entryX=0.5;entryY=1;entryDx=0;entryDy=0;" edge="1" parent="1" source="H3HsotdIxhZwdMS4Lfef-53" target="H3HsotdIxhZwdMS4Lfef-21">
                    <mxGeometry width="50" height="50" relative="1" as="geometry">
                        <mxPoint x="440" y="400" as="sourcePoint"/>
                        <mxPoint x="490" y="350" as="targetPoint"/>
                    </mxGeometry>
                </mxCell>
                <mxCell id="18" value="" style="endArrow=none;html=1;startSize=2;endSize=2;entryX=0.5;entryY=1;entryDx=0;entryDy=0;exitX=0.5;exitY=0;exitDx=0;exitDy=0;" edge="1" parent="1" source="H3HsotdIxhZwdMS4Lfef-46" target="H3HsotdIxhZwdMS4Lfef-53">
                    <mxGeometry width="50" height="50" relative="1" as="geometry">
                        <mxPoint x="440" y="400" as="sourcePoint"/>
                        <mxPoint x="490" y="350" as="targetPoint"/>
                    </mxGeometry>
                </mxCell>
                <mxCell id="H3HsotdIxhZwdMS4Lfef-55" value="$$\widetilde{h_t}$$" style="text;html=1;strokeColor=none;fillColor=none;align=center;verticalAlign=middle;whiteSpace=wrap;rounded=0;labelBackgroundColor=none;fontSize=17;" parent="1" vertex="1">
                    <mxGeometry x="525" y="295" width="30" height="30" as="geometry"/>
                </mxCell>
                <mxCell id="21" value="" style="endArrow=classic;html=1;startSize=2;endSize=2;entryX=0.5;entryY=1;entryDx=0;entryDy=0;exitX=0.5;exitY=0;exitDx=0;exitDy=0;" edge="1" parent="1" source="H3HsotdIxhZwdMS4Lfef-55" target="H3HsotdIxhZwdMS4Lfef-31">
                    <mxGeometry width="50" height="50" relative="1" as="geometry">
                        <mxPoint x="560" y="400" as="sourcePoint"/>
                        <mxPoint x="610" y="350" as="targetPoint"/>
                    </mxGeometry>
                </mxCell>
                <mxCell id="22" value="" style="endArrow=none;html=1;startSize=2;endSize=2;entryX=0.5;entryY=1;entryDx=0;entryDy=0;exitX=0.5;exitY=0;exitDx=0;exitDy=0;" edge="1" parent="1" source="H3HsotdIxhZwdMS4Lfef-12" target="H3HsotdIxhZwdMS4Lfef-55">
                    <mxGeometry width="50" height="50" relative="1" as="geometry">
                        <mxPoint x="560" y="400" as="sourcePoint"/>
                        <mxPoint x="610" y="350" as="targetPoint"/>
                    </mxGeometry>
                </mxCell>
                <mxCell id="25" value="" style="endArrow=classic;html=1;startSize=2;endSize=2;exitX=1;exitY=0.5;exitDx=0;exitDy=0;jumpStyle=arc;jumpSize=12;entryX=0;entryY=0.5;entryDx=0;entryDy=0;" edge="1" parent="1" source="H3HsotdIxhZwdMS4Lfef-6" target="32">
                    <mxGeometry width="50" height="50" relative="1" as="geometry">
                        <mxPoint x="320" y="400" as="sourcePoint"/>
                        <mxPoint x="470" y="390" as="targetPoint"/>
                        <Array as="points">
                            <mxPoint x="310" y="220"/>
                            <mxPoint x="310" y="390"/>
                        </Array>
                    </mxGeometry>
                </mxCell>
                <mxCell id="26" value="" style="endArrow=classic;html=1;startSize=2;endSize=2;exitX=1;exitY=0.5;exitDx=0;exitDy=0;entryX=0.5;entryY=0;entryDx=0;entryDy=0;" edge="1" parent="1" source="H3HsotdIxhZwdMS4Lfef-6" target="H3HsotdIxhZwdMS4Lfef-43">
                    <mxGeometry width="50" height="50" relative="1" as="geometry">
                        <mxPoint x="400" y="400" as="sourcePoint"/>
                        <mxPoint x="450" y="350" as="targetPoint"/>
                        <Array as="points">
                            <mxPoint x="310" y="220"/>
                        </Array>
                    </mxGeometry>
                </mxCell>
                <mxCell id="27" value="" style="endArrow=classic;html=1;startSize=2;endSize=2;exitX=1;exitY=0.5;exitDx=0;exitDy=0;entryX=0.5;entryY=1;entryDx=0;entryDy=0;startArrow=none;jumpStyle=arc;jumpSize=12;" edge="1" parent="1" source="H3HsotdIxhZwdMS4Lfef-51" target="32">
                    <mxGeometry width="50" height="50" relative="1" as="geometry">
                        <mxPoint x="400" y="400" as="sourcePoint"/>
                        <mxPoint x="475" y="400" as="targetPoint"/>
                        <Array as="points">
                            <mxPoint x="390" y="430"/>
                            <mxPoint x="480" y="430"/>
                        </Array>
                    </mxGeometry>
                </mxCell>
                <mxCell id="H3HsotdIxhZwdMS4Lfef-51" value="$$r_t$$" style="text;html=1;strokeColor=none;fillColor=none;align=center;verticalAlign=middle;whiteSpace=wrap;rounded=0;labelBackgroundColor=none;fontSize=17;" parent="1" vertex="1">
                    <mxGeometry x="351" y="415" width="30" height="30" as="geometry"/>
                </mxCell>
                <mxCell id="28" value="" style="endArrow=none;html=1;startSize=2;endSize=2;exitX=1;exitY=0.5;exitDx=0;exitDy=0;entryX=0;entryY=0.5;entryDx=0;entryDy=0;" edge="1" parent="1" source="H3HsotdIxhZwdMS4Lfef-43" target="H3HsotdIxhZwdMS4Lfef-51">
                    <mxGeometry width="50" height="50" relative="1" as="geometry">
                        <mxPoint x="340" y="430" as="sourcePoint"/>
                        <mxPoint x="390" y="400" as="targetPoint"/>
                        <Array as="points"/>
                    </mxGeometry>
                </mxCell>
                <mxCell id="29" value="" style="endArrow=classic;html=1;startSize=2;endSize=2;entryX=0.5;entryY=1;entryDx=0;entryDy=0;exitX=0.5;exitY=0;exitDx=0;exitDy=0;" edge="1" parent="1" source="H3HsotdIxhZwdMS4Lfef-61" target="H3HsotdIxhZwdMS4Lfef-43">
                    <mxGeometry width="50" height="50" relative="1" as="geometry">
                        <mxPoint x="390" y="400" as="sourcePoint"/>
                        <mxPoint x="440" y="350" as="targetPoint"/>
                        <Array as="points">
                            <mxPoint x="310" y="470"/>
                        </Array>
                    </mxGeometry>
                </mxCell>
                <mxCell id="30" value="" style="endArrow=classic;html=1;startSize=2;endSize=2;entryX=0.5;entryY=1;entryDx=0;entryDy=0;exitX=0.5;exitY=0;exitDx=0;exitDy=0;" edge="1" parent="1" source="H3HsotdIxhZwdMS4Lfef-61" target="H3HsotdIxhZwdMS4Lfef-12">
                    <mxGeometry width="50" height="50" relative="1" as="geometry">
                        <mxPoint x="400" y="400" as="sourcePoint"/>
                        <mxPoint x="450" y="350" as="targetPoint"/>
                        <Array as="points">
                            <mxPoint x="310" y="470"/>
                            <mxPoint x="540" y="470"/>
                        </Array>
                    </mxGeometry>
                </mxCell>
                <mxCell id="32" value="$$\times$$" style="rounded=1;whiteSpace=wrap;html=1;labelBackgroundColor=none;fontSize=17;fillColor=#fff2cc;strokeColor=#d6b656;" vertex="1" parent="1">
                    <mxGeometry x="470" y="380" width="20" height="20" as="geometry"/>
                </mxCell>
                <mxCell id="33" value="" style="endArrow=classic;html=1;startSize=2;endSize=2;entryX=0.5;entryY=1;entryDx=0;entryDy=0;exitX=1;exitY=0.5;exitDx=0;exitDy=0;" edge="1" parent="1" source="H3HsotdIxhZwdMS4Lfef-25" target="H3HsotdIxhZwdMS4Lfef-62">
                    <mxGeometry width="50" height="50" relative="1" as="geometry">
                        <mxPoint x="480" y="400" as="sourcePoint"/>
                        <mxPoint x="530" y="350" as="targetPoint"/>
                        <Array as="points">
                            <mxPoint x="560" y="220"/>
                        </Array>
                    </mxGeometry>
                </mxCell>
            </root>
        </mxGraphModel>
    </diagram>
</mxfile>